<svg xmlns="http://www.w3.org/2000/svg" viewBox="5 12 54 44" fill="none">
  <g stroke="#000" stroke-width="3.2" stroke-linecap="round" stroke-linejoin="round">
    <path d="M21 14C17.7 14 14.9 16.2 14 19.3C9.9 19.7 7 23.1 7 27C7 30.9 9.9 34.3 14 34.7C14.9 37.8 17.7 40 21 40H43C46.3 40 49.1 37.8 50 34.7C54.1 34.3 57 30.9 57 27C57 23.1 54.1 19.7 50 19.3C49.1 16.2 46.3 14 43 14C40.6 14 38.5 15.2 37.2 17C36.1 15.1 34.1 14 32 14C29.9 14 27.9 15.1 26.8 17C25.5 15.2 23.4 14 21 14Z"/>
    <path d="M22 26C24.2 26 25.6 24.9 26.4 23"/>
    <path d="M42 26C39.8 26 38.4 24.9 37.6 23"/>
    <path d="M27.2 20.2C28.8 21.2 29.8 22.7 30.1 24.3"/>
    <path d="M36.8 20.2C35.2 21.2 34.2 22.7 33.9 24.3"/>
    <path d="M26.8 31.2C28.5 31.9 29.8 33.1 30.6 34.6"/>
    <path d="M37.2 31.2C35.5 31.9 34.2 33.1 33.4 34.6"/>
  </g>
</svg>
