<svg xmlns="http://www.w3.org/2000/svg" viewBox="6 12 52 42" fill="none">
  <g stroke="#000" stroke-width="3" stroke-linecap="round" stroke-linejoin="round">
    <path d="M21 15C17.5 15 14.6 17.3 13.5 20.5C9.8 20.9 7 23.8 7 27.3C7 30.8 9.8 33.7 13.5 34.1C14.6 37.3 17.5 39.6 21 39.6H43C46.5 39.6 49.4 37.3 50.5 34.1C54.2 33.7 57 30.8 57 27.3C57 23.8 54.2 20.9 50.5 20.5C49.4 17.3 46.5 15 43 15C40.3 15 37.8 16.5 36.3 18.8H27.7C26.2 16.5 23.7 15 21 15Z"/>
    <path d="M25.5 18.8C26.8 20 27.5 21.3 27.7 23"/>
    <path d="M38.5 18.8C37.2 20 36.5 21.3 36.3 23"/>
    <path d="M21.5 27.8C23.1 27.8 24.4 27 25 25.9"/>
    <path d="M42.5 27.8C40.9 27.8 39.6 27 39 25.9"/>
    <path d="M27.2 20.2C28.8 21.2 29.8 22.7 30.1 24.3"/>
    <path d="M36.8 20.2C35.2 21.2 34.2 22.7 33.9 24.3"/>
    <path d="M26.8 31.2C28.5 31.9 29.8 33.1 30.6 34.6"/>
    <path d="M37.2 31.2C35.5 31.9 34.2 33.1 33.4 34.6"/>
  </g>
</svg>
