<svg xmlns="http://www.w3.org/2000/svg" viewBox="7 12 50 42" fill="none">
  <g stroke="#000" stroke-width="3" stroke-linecap="round" stroke-linejoin="round">
    <path d="M22 15C18.7 15 15.9 17.2 15 20.3C11.3 20.8 8.5 23.8 8.5 27.3C8.5 30.8 11.3 33.8 15 34.3C15.9 37.4 18.7 39.6 22 39.6H42C45.3 39.6 48.1 37.4 49 34.3C52.7 33.8 55.5 30.8 55.5 27.3C55.5 23.8 52.7 20.8 49 20.3C48.1 17.2 45.3 15 42 15C39.1 15 36.6 16.8 35.4 19.4C34.4 18.2 33.2 17.5 32 17.5C30.8 17.5 29.6 18.2 28.6 19.4C27.4 16.8 24.9 15 22 15Z"/>
    <path d="M24 22.8C25.8 23.6 27 24.8 27.3 26.5"/>
    <path d="M40 22.8C38.2 23.6 37 24.8 36.7 26.5"/>
    <path d="M20.7 29.2C22.4 29.2 23.8 28.3 24.6 26.9"/>
    <path d="M43.3 29.2C41.6 29.2 40.2 28.3 39.4 26.9"/>
    <path d="M27.2 20.2C28.8 21.2 29.8 22.7 30.1 24.3"/>
    <path d="M36.8 20.2C35.2 21.2 34.2 22.7 33.9 24.3"/>
    <path d="M26.8 31.2C28.5 31.9 29.8 33.1 30.6 34.6"/>
    <path d="M37.2 31.2C35.5 31.9 34.2 33.1 33.4 34.6"/>
  </g>
</svg>
