<svg xmlns="http://www.w3.org/2000/svg" viewBox="6 10 52 45" fill="none">
  <g stroke="#000" stroke-width="3" stroke-linecap="round" stroke-linejoin="round">
    <path d="M32 12C28.6 9.9 24 10.2 21 13.1C16.8 12.8 13.2 15.5 12.3 19.4C8.9 20.2 6.5 23.2 6.5 26.7C6.5 30.2 8.9 33.2 12.3 34C13.2 37.9 16.8 40.6 21 40.3H43C47.2 40.6 50.8 37.9 51.7 34C55.1 33.2 57.5 30.2 57.5 26.7C57.5 23.2 55.1 20.2 51.7 19.4C50.8 15.5 47.2 12.8 43 13.1C40 10.2 35.4 9.9 32 12Z"/>
    <path d="M20.5 27C22.4 27 23.8 26 24.7 24.4"/>
    <path d="M43.5 27C41.6 27 40.2 26 39.3 24.4"/>
    <path d="M27.2 16.7C28.9 17.8 30 19.5 30 21.5"/>
    <path d="M36.8 16.7C35.1 17.8 34 19.5 34 21.5"/>
    <path d="M27.2 20.2C28.8 21.2 29.8 22.7 30.1 24.3"/>
    <path d="M36.8 20.2C35.2 21.2 34.2 22.7 33.9 24.3"/>
    <path d="M26.8 31.2C28.5 31.9 29.8 33.1 30.6 34.6"/>
    <path d="M37.2 31.2C35.5 31.9 34.2 33.1 33.4 34.6"/>
  </g>
</svg>
